Coordinates
version=1
nRows=10
nColumns=63
inDegrees=yes

Units are S.I. units (second, meters, Newtons, ...)
If the header above contains a line with 'inDegrees', this indicates whether rotational values are in degrees (yes) or radians (no).

endheader
time	pelvis_tilt	pelvis_list	pelvis_rotation	pelvis_tx	pelvis_ty	pelvis_tz	hip_flexion_r	hip_adduction_r	hip_rotation_r	knee_angle_r	knee_angle_r_beta	ankle_angle_r	subtalar_angle_r	mtp_angle_r	hip_flexion_l	hip_adduction_l	hip_rotation_l	knee_angle_l	knee_angle_l_beta	ankle_angle_l	subtalar_angle_l	mtp_angle_l	L5_S1_Flex_Ext	L5_S1_Lat_Bending	L5_S1_axial_rotation	L4_L5_Flex_Ext	L4_L5_Lat_Bending	L4_L5_axial_rotation	L3_L4_Flex_Ext	L3_L4_Lat_Bending	L3_L4_axial_rotation	L2_L3_Flex_Ext	L2_L3_Lat_Bending	L2_L3_axial_rotation	L1_L2_Flex_Ext	L1_L2_Lat_Bending	L1_L2_axial_rotation	L1_T12_Flex_Ext	L1_T12_Lat_Bending	L1_T12_axial_rotation	Abs_r3	Abs_r2	Abs_r1	Abs_t1	Abs_t2	neck_flexion	neck_bending	neck_rotation	arm_flex_r	arm_add_r	arm_rot_r	elbow_flex_r	pro_sup_r	wrist_flex_r	wrist_dev_r	arm_flex_l	arm_add_l	arm_rot_l	elbow_flex_l	pro_sup_l	wrist_flex_l	wrist_dev_l
      2.60000000	      2.86521460	     -8.20465508	     94.28272735	      0.18779952	      0.78663062	      0.80378762	     10.51020048	     -0.36432743	      3.85088569	      3.72558729	      0.06502376	     24.89681115	     -0.14133714	      0.00000000	     13.66190375	     -1.22277143	    -11.54834338	      9.68781289	      0.16908423	     30.08418617	     15.22267105	      0.00000000	      0.19054270	     -0.39788037	      0.46210905	      0.35385685	     -0.52918089	      0.49099086	      0.31304260	     -0.96740632	      0.49099086	      0.21777125	     -0.96740632	      0.40434542	      0.17693795	     -0.81135764	      0.37546360	      0.10887610	     -0.61631669	      0.34658179	      1.36102746	     -4.50090228	      2.57011189	      0.00000000	      0.00000000	     25.60028076	      0.10036391	     13.26336824	      4.90092961	    -17.37036871	    -21.56728089	    128.67934251	     81.59659407	     -8.87981153	     15.90739965	     -7.65538453	    -12.30226399	    -14.80330524	     92.52035514	     87.75103054	    -13.74838151	     15.17344958
      2.62000000	      2.91987811	     -8.08652575	     94.20713650	      0.18767683	      0.78724375	      0.80335293	     10.50461402	     -0.25637258	      3.65768815	      3.94349634	      0.06882700	     24.74719866	     -0.30494201	      0.00000000	     13.45661556	     -1.28765985	    -11.52401679	      9.67677039	      0.16889150	     29.83692310	     15.00393475	      0.00000000	      0.21236391	     -0.39839862	      0.46316818	      0.39438102	     -0.52987016	      0.49211619	      0.34889267	     -0.96866640	      0.49211619	      0.24271071	     -0.96866640	      0.40527216	      0.19720113	     -0.81241446	      0.37632415	      0.12134474	     -0.61711946	      0.34737614	      1.51689418	     -4.50676483	      2.57600247	      0.00000000	      0.00000000	     25.70684801	      0.82457625	     16.51379976	      5.92443011	    -17.79659687	    -21.14541342	    129.14146816	     84.15964218	     -8.85293182	     16.37407295	     -8.18708182	    -12.21298858	    -15.42154520	     92.83192342	     87.83136933	    -12.78077328	     12.21361729
      2.64000000	      2.96942254	     -8.06059404	     94.29900982	      0.18702948	      0.78777241	      0.80247191	     10.55455348	     -0.21645098	      3.44914397	      4.14294700	      0.07230807	     24.69416785	     -0.51248565	      0.00000000	     13.33815214	     -1.29172578	    -11.56594020	      9.70904278	      0.16945476	     29.63121765	     14.90493355	      0.00000000	      0.22506076	     -0.40572742	      0.54017520	      0.41796034	     -0.53961747	      0.57393615	      0.36975232	     -0.98648565	      0.57393615	      0.25722194	     -0.98648565	      0.47265330	      0.20899142	     -0.82735936	      0.43889235	      0.12859972	     -0.62847178	      0.40513140	      1.60758651	     -4.58966974	      3.00429242	      0.00000000	      0.00000000	     26.07566369	      1.26239667	     18.33542144	      5.94444023	    -18.38554354	    -21.46690547	    130.12367168	     84.83129010	     -8.47454422	     15.72764922	     -8.26852215	    -12.47272815	    -15.24780344	     93.38181308	     88.05546053	    -12.42633159	     11.59444120
      2.66000000	      3.07460508	     -8.10689978	     93.97361937	      0.18693057	      0.78856683	      0.80192468	     10.75222096	     -0.05195371	      3.59537387	      4.34235440	      0.07578838	     24.55700484	     -0.61368665	      0.00000000	     13.26696250	     -1.43612157	    -11.65991411	      9.72461544	      0.16972656	     29.28531989	     14.45393328	      0.00000000	      0.23701829	     -0.39379591	      0.58741184	      0.44016667	     -0.52374856	      0.62412508	      0.38939735	     -0.95747537	      0.62412508	      0.27088820	     -0.95747537	      0.51398536	      0.22009518	     -0.80302862	      0.47727212	      0.13543225	     -0.60998986	      0.44055888	      1.69299794	     -4.45469809	      3.26700844	      0.00000000	      0.00000000	     26.12471424	      2.67138357	     21.72935561	      6.41899125	    -18.40411141	    -21.36364951	    130.49948694	     86.76049502	     -6.70819607	     13.40249932	     -8.55406885	    -12.60615152	    -15.76404120	     93.52655191	     88.22731368	    -11.67400040	     10.10337129
      2.68000000	      3.20154468	     -8.24114421	     94.03953892	      0.18629522	      0.78910341	      0.80137991	     10.97496737	      0.06132305	      3.56682824	      4.45143594	      0.07769221	     24.45547592	     -0.86488140	      0.00000000	     13.33158022	     -1.51124596	    -11.58969594	      9.74799672	      0.17013464	     28.96216923	     14.20264249	      0.00000000	      0.24640231	     -0.39109940	      0.61790432	      0.45759374	     -0.52016221	      0.65652334	      0.40481436	     -0.95091909	      0.65652334	      0.28161321	     -0.95091909	      0.54066628	      0.22880919	     -0.79752990	      0.50204726	      0.14079428	     -0.60581298	      0.46342824	      1.76002709	     -4.42419467	      3.43659847	      0.00000000	      0.00000000	     26.55593920	      3.52895062	     23.13025184	      6.42364301	    -18.34623503	    -21.41285076	    131.12729266	     87.09007068	     -5.49985695	     11.01661732	     -8.68786825	    -12.97164821	    -15.87492071	     93.96396979	     88.42526945	    -11.36403071	     10.23042634
      2.70000000	      3.30652716	     -8.36885182	     94.06789905	      0.18579576	      0.78958057	      0.80086723	     11.17838394	      0.16801349	      3.72067661	      4.51246576	      0.07875738	     24.34557227	     -1.15753008	      0.00000000	     13.36855007	     -1.56215835	    -11.48710531	      9.69511792	      0.16921173	     28.73200145	     13.94310283	      0.00000000	      0.25272659	     -0.39536880	      0.64321398	      0.46933856	     -0.52584050	      0.68341485	      0.41520452	     -0.96129969	      0.68341485	      0.28884123	     -0.96129969	      0.56281223	      0.23468192	     -0.80623605	      0.52261136	      0.14440798	     -0.61242626	      0.48241048	      1.80520079	     -4.47249088	      3.57736318	      0.00000000	      0.00000000	     26.95880018	      4.39348464	     23.71110839	      6.71416554	    -18.03886846	    -20.96679178	    131.37202837	     87.25400709	     -4.35016611	      8.44639209	     -8.92396302	    -13.41781779	    -15.99242367	     94.51897751	     88.58758644	    -11.11326989	     10.71988642
      2.72000000	      3.55865987	     -8.45725962	     94.19305217	      0.18541180	      0.79006905	      0.80061546	     11.34423850	      0.42321131	      3.71808528	      4.51989752	      0.07888709	     24.17326352	     -1.27161483	      0.00000000	     13.38476236	     -1.75846007	    -11.36904737	      9.53810125	      0.16647127	     28.68121178	     13.94134613	      0.00000000	      0.25737800	     -0.38510219	      0.69818652	      0.47797668	     -0.51218591	      0.74182318	      0.42284631	     -0.93633745	      0.74182318	      0.29415731	     -0.93633745	      0.61091320	      0.23900121	     -0.78530038	      0.56727655	      0.14706579	     -0.59652329	      0.52363989	      1.83842530	     -4.35635294	      3.88310396	      0.00000000	      0.00000000	     27.13236124	      4.81013693	     23.56899962	      7.23139554	    -17.65256799	    -20.15314894	    131.67232378	     87.35939520	     -4.06994107	      7.92730782	     -8.96684381	    -13.92169416	    -15.69138127	     94.83536467	     88.68529040	    -10.88075318	     10.83868171
      2.74000000	      3.70292073	     -8.53537974	     94.30734163	      0.18524501	      0.79043225	      0.80059058	     11.54128603	      0.58182369	      3.91507690	      4.57355649	      0.07982362	     24.15106115	     -1.48018552	      0.00000000	     13.41953916	     -1.84036276	    -11.22278303	      9.36715687	      0.16348773	     28.74598547	     13.90549373	      0.00000000	      0.25748908	     -0.39154110	      0.76126610	      0.47818297	     -0.52074967	      0.80884523	      0.42302881	     -0.95199304	      0.80884523	      0.29428427	     -0.95199304	      0.66610784	      0.23910436	     -0.79843062	      0.61852871	      0.14712926	     -0.60649717	      0.57094958	      1.83921873	     -4.42919128	      4.23393368	      0.00000000	      0.00000000	     27.19661327	      5.42899399	     23.42947641	      8.01647103	    -17.20704640	    -18.84218460	    131.47632239	     87.58225776	     -3.89243969	      7.43935766	     -8.98896377	    -14.45319513	    -15.31940144	     95.28062384	     88.71213341	    -10.49033027	     11.10757271
      2.76000000	      3.71046819	     -8.57208538	     94.36137170	      0.18547460	      0.79058360	      0.80061281	     11.64868419	      0.67614701	      5.37454229	      4.51394446	      0.07878319	     23.80401145	     -3.37768418	      0.00000000	     13.38413688	     -1.78910257	    -10.80642654	      9.13120230	      0.15936954	     28.90979975	     13.63504247	      0.00000000	      0.25099340	     -0.41132503	      0.73297922	      0.46611984	     -0.54706229	      0.77879042	      0.41235705	     -1.00009569	      0.77879042	      0.28686035	     -1.00009569	      0.64135681	      0.23307247	     -0.83877401	      0.59554561	      0.14341763	     -0.63714248	      0.54973441	      1.79282074	     -4.65299105	      4.07661050	      0.00000000	      0.00000000	     27.20910727	      6.20812257	     24.15229118	      9.56368941	    -16.64406134	    -16.08216363	    130.72087227	     87.70519773	     -5.13760606	      7.81901879	     -9.34297241	    -14.47437551	    -16.20217094	     96.13880093	     88.73189082	     -8.92665772	     12.06284911
      2.78000000	      3.86656199	     -8.71528686	     94.56396317	      0.18535198	      0.79041038	      0.80081367	     11.88478910	      0.80888017	      5.44045721	      4.46579878	      0.07794289	     23.81625898	     -3.45048476	      0.00000000	     13.50462547	     -1.88340754	    -10.39234925	      8.90360578	      0.15539724	     29.25507164	     13.87606054	      0.00000000	      0.25927000	     -0.41751166	      0.84908311	      0.48149031	     -0.55529051	      0.90215080	      0.42595468	     -1.01513786	      0.90215080	      0.29631968	     -1.01513786	      0.74294772	      0.24075812	     -0.85138978	      0.68988003	      0.14814688	     -0.64672557	      0.63681233	      1.85193965	     -4.72297544	      4.72234552	      0.00000000	      0.00000000	     27.21995137	      6.15850701	     23.72919016	     10.46481916	    -16.11838416	    -14.83513001	    130.09628443	     87.66828774	     -5.07020035	      8.39263045	     -8.87296030	    -14.62724203	    -15.48821719	     96.38391091	     88.76376885	     -8.66734910	     11.99439236
